# Blender 5.0.1
# www.blender.org
mtllib generator.mtl
o Base
v 0.986596 3.240134 -1.044328
v 0.986596 -0.036475 -1.044328
v 0.986596 3.240134 1.044328
v 0.986596 -0.036475 1.044328
v -1.713431 4.227717 -1.350013
v -1.713431 -0.007986 -1.350013
v -1.713431 4.227717 1.350013
v -1.713431 -0.007986 1.350013
vn 0.3435 0.9391 -0.0000
vn 0.1125 -0.0000 0.9937
vn -1.0000 -0.0000 -0.0000
vn -0.0106 -0.9999 -0.0000
vn 1.0000 -0.0000 -0.0000
vn 0.1125 -0.0000 -0.9937
vt 0.625000 0.500000
vt 0.875000 0.500000
vt 0.875000 0.750000
vt 0.625000 0.750000
vt 0.375000 0.750000
vt 0.625000 1.000000
vt 0.375000 1.000000
vt 0.375000 0.000000
vt 0.625000 0.000000
vt 0.625000 0.250000
vt 0.375000 0.250000
vt 0.125000 0.500000
vt 0.375000 0.500000
vt 0.125000 0.750000
s 0
usemtl Material
f 1/1/1 5/2/1 7/3/1 3/4/1
f 4/5/2 3/4/2 7/6/2 8/7/2
f 8/8/3 7/9/3 5/10/3 6/11/3
f 6/12/4 2/13/4 4/5/4 8/14/4
f 2/13/5 1/1/5 3/4/5 4/5/5
f 6/11/6 5/10/6 1/1/6 2/13/6
